<svg height="512" viewBox="0 0 512 512" width="512" xmlns="http://www.w3.org/2000/svg"><g id="flat"><path d="m488 370.765v29.235l-32 16h-408l-24-16 8-80 54.62-33.9 27.338 25.169 222.042.731 24-8 80.008 11.43a55.894 55.894 0 0 1 43.992 34.575 55.9 55.9 0 0 1 4 20.76z" fill="#2c91ff"/><path d="m488 370.76v29.24l-32 16h-104v-26.11a130.507 130.507 0 0 0 -25.93-77.8l-.09-.12 10.02.03 7.75-2.58 16.25-5.42 80.01 11.43a55.9 55.9 0 0 1 47.99 55.33z" fill="#2c91ff"/><path d="m255.999 164.124h32l-8 56 64-72h-32l8-56z" fill="#ee9d0d"/><path d="m323.912 256a8 8 0 0 1 -2.318-15.658 88.025 88.025 0 1 0 -91.483-25.887c1.62 1.832 3.333 3.613 5.092 5.3a8 8 0 0 1 -11.066 11.556c-2.075-1.987-4.1-4.089-6.007-6.248a103.928 103.928 0 1 1 108.106 30.594 7.979 7.979 0 0 1 -2.324.343z" fill="#f3be5f"/><g fill="#007af6"><path d="m96 368a8 8 0 0 1 -8-8v-4.533a73.824 73.824 0 0 1 21.765-52.546 8 8 0 1 1 11.314 11.313 57.931 57.931 0 0 0 -17.079 41.233v4.533a8 8 0 0 1 -8 8z"/><path d="m368 389.89v26.11h-16v-26.11a130.507 130.507 0 0 0 -25.93-77.8l-.09-.12a8 8 0 0 1 12.89-9.48c1.7 2.26 3.32 4.57 4.88 6.93a146.782 146.782 0 0 1 24.25 80.47z"/><path d="m272 352h-16a8 8 0 0 1 0-16h16a8 8 0 0 1 0 16z"/><path d="m144 352h-16a8 8 0 0 1 0-16h16a8 8 0 0 1 0 16z"/></g><circle cx="96" cy="408" fill="#6a6c65" r="48"/><circle cx="96" cy="408" fill="#eae9e4" r="16"/><circle cx="408" cy="408" fill="#6a6c65" r="48"/><circle cx="408" cy="408" fill="#eae9e4" r="16"/><path d="m336 312 24-8-85.214-42.607a51.079 51.079 0 0 0 -22.846-5.393h-104.429a59.993 59.993 0 0 0 -35.29 11.476l-25.601 18.624 27.338 25.169z" fill="#a6deff"/><path d="m216 311.602v-55.602h16v55.655" fill="#5ebef7"/><path d="m232 311.655v104.345h-16v-104.398z" fill="#007af6"/></g></svg>